<?xml version="1.0" encoding="utf-8" standalone="no"?>
<!DOCTYPE svg PUBLIC "-//W3C//DTD SVG 1.1//EN"
  "http://www.w3.org/Graphics/SVG/1.1/DTD/svg11.dtd">
<!-- Created with matplotlib (http://matplotlib.org/) -->
<svg height="432pt" version="1.1" viewBox="0 0 576 432" width="576pt" xmlns="http://www.w3.org/2000/svg" xmlns:xlink="http://www.w3.org/1999/xlink">
 <defs>
  <style type="text/css">
*{stroke-linecap:butt;stroke-linejoin:round;}
  </style>
 </defs>
 <g id="figure_1">
  <g id="patch_1">
   <path d="
M0 432
L576 432
L576 0
L0 0
z
" style="fill:#ffffff;"/>
  </g>
  <g id="axes_1">
   <g id="patch_2">
    <path d="
M72 388.8
L518.4 388.8
L518.4 43.2
L72 43.2
z
" style="fill:#ffffff;"/>
   </g>
   <g id="line2d_1">
    <path clip-path="url(#p7ff5b81e1d)" d="
M72 334.265
L72.8928 317.587
L74.0088 291.079
L75.348 253.211
L79.3656 134.307
L80.4816 109.14
L81.3744 93.778
L82.044 85.4617
L82.7136 80.1082
L83.16 78.248
L83.3832 77.8389
L83.6064 77.7788
L83.8296 78.0679
L84.0528 78.7054
L84.4992 81.0183
L84.9456 84.6943
L85.6152 92.6792
L86.2848 103.463
L87.1776 121.764
L88.2936 149.878
L89.856 195.768
L92.9808 289.061
L94.0968 315.95
L94.9896 333.009
L95.6592 342.74
L96.3288 349.595
L96.7752 352.487
L97.2216 354
L97.4448 354.235
L97.668 354.12
L97.8912 353.657
L98.3376 351.689
L98.784 348.351
L99.4536 340.852
L100.123 330.519
L101.016 312.748
L102.132 285.152
L103.694 239.662
L106.819 145.912
L107.935 118.481
L108.828 100.878
L109.721 87.9126
L110.39 81.5546
L110.837 79.005
L111.283 77.8389
L111.506 77.7788
L111.73 78.0679
L111.953 78.7054
L112.399 81.0183
L112.846 84.6943
L113.515 92.6792
L114.185 103.463
L115.078 121.764
L116.194 149.878
L117.756 195.768
L120.881 289.061
L121.997 315.95
L122.89 333.009
L123.559 342.74
L124.229 349.595
L124.675 352.487
L125.122 354
L125.345 354.235
L125.568 354.12
L125.791 353.657
L126.238 351.689
L126.684 348.351
L127.354 340.852
L128.023 330.519
L128.916 312.748
L130.032 285.152
L131.594 239.662
L134.719 145.912
L135.835 118.481
L136.728 100.878
L137.621 87.9126
L138.29 81.5546
L138.737 79.005
L139.183 77.8389
L139.406 77.7788
L139.63 78.0679
L139.853 78.7054
L140.299 81.0183
L140.746 84.6943
L141.415 92.6792
L142.085 103.463
L142.978 121.764
L144.094 149.878
L145.656 195.768
L148.781 289.061
L149.897 315.95
L150.79 333.009
L151.459 342.74
L152.129 349.595
L152.575 352.487
L153.022 354
L153.245 354.235
L153.468 354.12
L153.691 353.657
L154.138 351.689
L154.584 348.351
L155.254 340.852
L155.923 330.519
L156.816 312.748
L157.932 285.152
L159.494 239.662
L162.619 145.912
L163.735 118.481
L164.628 100.878
L165.521 87.9126
L166.19 81.5546
L166.637 79.005
L167.083 77.8389
L167.306 77.7788
L167.53 78.0679
L167.753 78.7054
L168.199 81.0183
L168.646 84.6943
L169.315 92.6792
L169.985 103.463
L170.878 121.764
L171.994 149.878
L173.556 195.768
L176.681 289.061
L177.797 315.95
L178.69 333.009
L179.359 342.74
L180.029 349.595
L180.475 352.487
L180.922 354
L181.145 354.235
L181.368 354.12
L181.591 353.657
L182.038 351.689
L182.484 348.351
L183.154 340.852
L183.823 330.519
L184.716 312.748
L185.832 285.152
L187.394 239.662
L190.519 145.912
L191.635 118.481
L192.528 100.878
L193.421 87.9126
L194.09 81.5546
L194.537 79.005
L194.983 77.8389
L195.206 77.7788
L195.43 78.0679
L195.653 78.7054
L196.099 81.0183
L196.546 84.6943
L197.215 92.6792
L197.885 103.463
L198.778 121.764
L199.894 149.878
L201.456 195.768
L204.581 289.061
L205.697 315.95
L206.59 333.009
L207.259 342.74
L207.929 349.595
L208.375 352.487
L208.822 354
L209.045 354.235
L209.268 354.12
L209.491 353.657
L209.938 351.689
L210.384 348.351
L211.054 340.852
L211.723 330.519
L212.616 312.748
L213.732 285.152
L215.294 239.662
L218.419 145.912
L219.535 118.481
L220.428 100.878
L221.321 87.9126
L221.99 81.5546
L222.437 79.005
L222.883 77.8389
L223.106 77.7788
L223.33 78.0679
L223.553 78.7054
L223.999 81.0183
L224.446 84.6943
L225.115 92.6792
L225.785 103.463
L226.678 121.764
L227.794 149.878
L229.356 195.768
L232.481 289.061
L233.597 315.95
L234.49 333.009
L235.159 342.74
L235.829 349.595
L236.275 352.487
L236.722 354
L236.945 354.235
L237.168 354.12
L237.391 353.657
L237.838 351.689
L238.284 348.351
L238.954 340.852
L239.623 330.519
L240.516 312.748
L241.632 285.152
L243.194 239.662
L246.319 145.912
L247.435 118.481
L248.328 100.878
L249.221 87.9126
L249.89 81.5546
L250.337 79.005
L250.783 77.8389
L251.006 77.7788
L251.23 78.0679
L251.453 78.7054
L251.899 81.0183
L252.346 84.6943
L253.015 92.6792
L253.685 103.463
L254.578 121.764
L255.694 149.878
L257.256 195.768
L260.381 289.061
L261.497 315.95
L262.39 333.009
L263.059 342.74
L263.729 349.595
L264.175 352.487
L264.622 354
L264.845 354.235
L265.068 354.12
L265.291 353.657
L265.738 351.689
L266.184 348.351
L266.854 340.852
L267.523 330.519
L268.416 312.748
L269.532 285.152
L271.094 239.662
L274.219 145.912
L275.335 118.481
L276.228 100.878
L277.121 87.9126
L277.79 81.5546
L278.237 79.005
L278.683 77.8389
L278.906 77.7788
L279.13 78.0679
L279.353 78.7054
L279.799 81.0183
L280.246 84.6943
L280.915 92.6792
L281.585 103.463
L282.478 121.764
L283.594 149.878
L285.156 195.768
L288.281 289.061
L289.397 315.95
L290.29 333.009
L290.959 342.74
L291.629 349.595
L292.075 352.487
L292.522 354
L292.745 354.235
L292.968 354.12
L293.191 353.657
L293.638 351.689
L294.084 348.351
L294.754 340.852
L295.423 330.519
L296.316 312.748
L297.432 285.152
L298.994 239.662
L302.119 145.912
L303.235 118.481
L304.128 100.878
L305.021 87.9126
L305.69 81.5546
L306.137 79.005
L306.583 77.8389
L306.806 77.7788
L307.03 78.0679
L307.253 78.7054
L307.699 81.0183
L308.146 84.6943
L308.815 92.6792
L309.485 103.463
L310.378 121.764
L311.494 149.878
L313.056 195.768
L316.181 289.061
L317.297 315.95
L318.19 333.009
L318.859 342.74
L319.529 349.595
L319.975 352.487
L320.422 354
L320.645 354.235
L320.868 354.12
L321.091 353.657
L321.538 351.689
L321.984 348.351
L322.654 340.852
L323.323 330.519
L324.216 312.748
L325.332 285.152
L326.894 239.662
L330.019 145.912
L331.135 118.481
L332.028 100.878
L332.921 87.9126
L333.59 81.5546
L334.037 79.005
L334.483 77.8389
L334.706 77.7788
L334.93 78.0679
L335.153 78.7054
L335.599 81.0183
L336.046 84.6943
L336.715 92.6792
L337.385 103.463
L338.278 121.764
L339.394 149.878
L340.956 195.768
L344.081 289.061
L345.197 315.95
L346.09 333.009
L346.759 342.74
L347.429 349.595
L347.875 352.487
L348.322 354
L348.545 354.235
L348.768 354.12
L348.991 353.657
L349.438 351.689
L349.884 348.351
L350.554 340.852
L351.223 330.519
L352.116 312.748
L353.232 285.152
L354.794 239.662
L357.919 145.912
L359.035 118.481
L359.928 100.878
L360.821 87.9126
L361.49 81.5546
L361.937 79.005
L362.383 77.8389
L362.606 77.7788
L362.83 78.0679
L363.053 78.7054
L363.499 81.0183
L363.946 84.6943
L364.615 92.6792
L365.285 103.463
L366.178 121.764
L367.294 149.878
L368.856 195.768
L371.981 289.061
L373.097 315.95
L373.99 333.009
L374.659 342.74
L375.329 349.595
L375.775 352.487
L376.222 354
L376.445 354.235
L376.668 354.12
L376.891 353.657
L377.338 351.689
L377.784 348.351
L378.454 340.852
L379.123 330.519
L380.016 312.748
L381.132 285.152
L382.694 239.662
L385.819 145.912
L386.935 118.481
L387.828 100.878
L388.721 87.9126
L389.39 81.5546
L389.837 79.005
L390.283 77.8389
L390.506 77.7788
L390.73 78.0679
L390.953 78.7054
L391.399 81.0183
L391.846 84.6943
L392.515 92.6792
L393.185 103.463
L394.078 121.764
L395.194 149.878
L396.756 195.768
L399.881 289.061
L400.997 315.95
L401.89 333.009
L402.559 342.74
L403.229 349.595
L403.675 352.487
L404.122 354
L404.345 354.235
L404.568 354.12
L404.791 353.657
L405.238 351.689
L405.684 348.351
L406.354 340.852
L407.023 330.519
L407.916 312.748
L409.032 285.152
L410.594 239.662
L413.719 145.912
L414.835 118.481
L415.728 100.878
L416.621 87.9126
L417.29 81.5546
L417.737 79.005
L418.183 77.8389
L418.406 77.7788
L418.63 78.0679
L418.853 78.7054
L419.299 81.0183
L419.746 84.6943
L420.415 92.6792
L421.085 103.463
L421.978 121.764
L423.094 149.878
L424.656 195.768
L427.781 289.061
L428.897 315.95
L429.79 333.009
L430.459 342.74
L431.129 349.595
L431.575 352.487
L432.022 354
L432.245 354.235
L432.468 354.12
L432.691 353.657
L433.138 351.689
L433.584 348.351
L434.254 340.852
L434.923 330.519
L435.816 312.748
L436.932 285.152
L438.494 239.662
L441.619 145.912
L442.735 118.481
L443.628 100.878
L444.521 87.9126
L445.19 81.5546
L445.637 79.005
L446.083 77.8389
L446.306 77.7788
L446.53 78.0679
L446.753 78.7054
L447.199 81.0183
L447.646 84.6943
L448.315 92.6792
L448.985 103.463
L449.878 121.764
L450.994 149.878
L452.556 195.768
L455.681 289.061
L456.797 315.95
L457.69 333.009
L458.359 342.74
L459.029 349.595
L459.475 352.487
L459.922 354
L460.145 354.235
L460.368 354.12
L460.591 353.657
L461.038 351.689
L461.484 348.351
L462.154 340.852
L462.823 330.519
L463.716 312.748
L464.832 285.152
L466.394 239.662
L469.519 145.912
L470.635 118.481
L471.528 100.878
L472.421 87.9126
L473.09 81.5546
L473.537 79.005
L473.983 77.8389
L474.206 77.7788
L474.43 78.0679
L474.653 78.7054
L475.099 81.0183
L475.546 84.6943
L476.215 92.6792
L476.885 103.463
L477.778 121.764
L478.894 149.878
L480.456 195.768
L483.581 289.061
L484.697 315.95
L485.59 333.009
L486.259 342.74
L486.929 349.595
L487.375 352.487
L487.822 354
L488.045 354.235
L488.268 354.12
L488.491 353.657
L488.938 351.689
L489.384 348.351
L490.054 340.852
L490.723 330.519
L491.616 312.748
L492.732 285.152
L494.294 239.662
L497.419 145.912
L498.535 118.481
L499.428 100.878
L500.321 87.9126
L500.99 81.5546
L501.437 79.005
L501.883 77.8389
L502.106 77.7788
L502.33 78.0679
L502.553 78.7054
L502.999 81.0183
L503.446 84.6943
L504.115 92.6792
L504.785 103.463
L505.678 121.764
L506.794 149.878
L508.356 195.768
L511.481 289.061
L512.597 315.95
L513.49 333.009
L514.159 342.74
L514.829 349.595
L515.275 352.487
L515.722 354
L515.945 354.235
L516.168 354.12
L516.391 353.657
L516.838 351.689
L517.284 348.351
L517.954 340.852
L518.177 337.712
L518.177 337.712" style="fill:none;stroke:#0000ff;stroke-linecap:square;"/>
   </g>
   <g id="patch_3">
    <path d="
M72 43.2
L518.4 43.2" style="fill:none;stroke:#000000;stroke-linecap:square;stroke-linejoin:miter;"/>
   </g>
   <g id="patch_4">
    <path d="
M518.4 388.8
L518.4 43.2" style="fill:none;stroke:#000000;stroke-linecap:square;stroke-linejoin:miter;"/>
   </g>
   <g id="patch_5">
    <path d="
M72 388.8
L518.4 388.8" style="fill:none;stroke:#000000;stroke-linecap:square;stroke-linejoin:miter;"/>
   </g>
   <g id="patch_6">
    <path d="
M72 388.8
L72 43.2" style="fill:none;stroke:#000000;stroke-linecap:square;stroke-linejoin:miter;"/>
   </g>
   <g id="matplotlib.axis_1">
    <g id="xtick_1">
     <g id="line2d_2">
      <defs>
       <path d="
M0 0
L0 -4" id="m93b0483c22" style="stroke:#000000;stroke-width:0.5;"/>
      </defs>
      <g>
       <use style="stroke:#000000;stroke-width:0.5;" x="72.0" xlink:href="#m93b0483c22" y="388.8"/>
      </g>
     </g>
     <g id="line2d_3">
      <defs>
       <path d="
M0 0
L0 4" id="m741efc42ff" style="stroke:#000000;stroke-width:0.5;"/>
      </defs>
      <g>
       <use style="stroke:#000000;stroke-width:0.5;" x="72.0" xlink:href="#m741efc42ff" y="43.2"/>
      </g>
     </g>
     <g id="text_1">
      <!-- 0.0 -->
      <defs>
       <path d="
M31.7812 66.4062
Q24.1719 66.4062 20.3281 58.9062
Q16.5 51.4219 16.5 36.375
Q16.5 21.3906 20.3281 13.8906
Q24.1719 6.39062 31.7812 6.39062
Q39.4531 6.39062 43.2812 13.8906
Q47.125 21.3906 47.125 36.375
Q47.125 51.4219 43.2812 58.9062
Q39.4531 66.4062 31.7812 66.4062
M31.7812 74.2188
Q44.0469 74.2188 50.5156 64.5156
Q56.9844 54.8281 56.9844 36.375
Q56.9844 17.9688 50.5156 8.26562
Q44.0469 -1.42188 31.7812 -1.42188
Q19.5312 -1.42188 13.0625 8.26562
Q6.59375 17.9688 6.59375 36.375
Q6.59375 54.8281 13.0625 64.5156
Q19.5312 74.2188 31.7812 74.2188" id="BitstreamVeraSans-Roman-30"/>
       <path d="
M10.6875 12.4062
L21 12.4062
L21 0
L10.6875 0
z
" id="BitstreamVeraSans-Roman-2e"/>
      </defs>
      <g transform="translate(63.2521875 401.918125)scale(0.12 -0.12)">
       <use xlink:href="#BitstreamVeraSans-Roman-30"/>
       <use x="63.623046875" xlink:href="#BitstreamVeraSans-Roman-2e"/>
       <use x="95.41015625" xlink:href="#BitstreamVeraSans-Roman-30"/>
      </g>
     </g>
    </g>
    <g id="xtick_2">
     <g id="line2d_4">
      <g>
       <use style="stroke:#000000;stroke-width:0.5;" x="183.6" xlink:href="#m93b0483c22" y="388.8"/>
      </g>
     </g>
     <g id="line2d_5">
      <g>
       <use style="stroke:#000000;stroke-width:0.5;" x="183.6" xlink:href="#m741efc42ff" y="43.2"/>
      </g>
     </g>
     <g id="text_2">
      <!-- 0.5 -->
      <defs>
       <path d="
M10.7969 72.9062
L49.5156 72.9062
L49.5156 64.5938
L19.8281 64.5938
L19.8281 46.7344
Q21.9688 47.4688 24.1094 47.8281
Q26.2656 48.1875 28.4219 48.1875
Q40.625 48.1875 47.75 41.5
Q54.8906 34.8125 54.8906 23.3906
Q54.8906 11.625 47.5625 5.09375
Q40.2344 -1.42188 26.9062 -1.42188
Q22.3125 -1.42188 17.5469 -0.640625
Q12.7969 0.140625 7.71875 1.70312
L7.71875 11.625
Q12.1094 9.23438 16.7969 8.0625
Q21.4844 6.89062 26.7031 6.89062
Q35.1562 6.89062 40.0781 11.3281
Q45.0156 15.7656 45.0156 23.3906
Q45.0156 31 40.0781 35.4375
Q35.1562 39.8906 26.7031 39.8906
Q22.75 39.8906 18.8125 39.0156
Q14.8906 38.1406 10.7969 36.2812
z
" id="BitstreamVeraSans-Roman-35"/>
      </defs>
      <g transform="translate(174.9778125 401.918125)scale(0.12 -0.12)">
       <use xlink:href="#BitstreamVeraSans-Roman-30"/>
       <use x="63.623046875" xlink:href="#BitstreamVeraSans-Roman-2e"/>
       <use x="95.41015625" xlink:href="#BitstreamVeraSans-Roman-35"/>
      </g>
     </g>
    </g>
    <g id="xtick_3">
     <g id="line2d_6">
      <g>
       <use style="stroke:#000000;stroke-width:0.5;" x="295.2" xlink:href="#m93b0483c22" y="388.8"/>
      </g>
     </g>
     <g id="line2d_7">
      <g>
       <use style="stroke:#000000;stroke-width:0.5;" x="295.2" xlink:href="#m741efc42ff" y="43.2"/>
      </g>
     </g>
     <g id="text_3">
      <!-- 1.0 -->
      <defs>
       <path d="
M12.4062 8.29688
L28.5156 8.29688
L28.5156 63.9219
L10.9844 60.4062
L10.9844 69.3906
L28.4219 72.9062
L38.2812 72.9062
L38.2812 8.29688
L54.3906 8.29688
L54.3906 0
L12.4062 0
z
" id="BitstreamVeraSans-Roman-31"/>
      </defs>
      <g transform="translate(286.715625 401.918125)scale(0.12 -0.12)">
       <use xlink:href="#BitstreamVeraSans-Roman-31"/>
       <use x="63.623046875" xlink:href="#BitstreamVeraSans-Roman-2e"/>
       <use x="95.41015625" xlink:href="#BitstreamVeraSans-Roman-30"/>
      </g>
     </g>
    </g>
    <g id="xtick_4">
     <g id="line2d_8">
      <g>
       <use style="stroke:#000000;stroke-width:0.5;" x="406.8" xlink:href="#m93b0483c22" y="388.8"/>
      </g>
     </g>
     <g id="line2d_9">
      <g>
       <use style="stroke:#000000;stroke-width:0.5;" x="406.8" xlink:href="#m741efc42ff" y="43.2"/>
      </g>
     </g>
     <g id="text_4">
      <!-- 1.5 -->
      <g transform="translate(398.44125 401.918125)scale(0.12 -0.12)">
       <use xlink:href="#BitstreamVeraSans-Roman-31"/>
       <use x="63.623046875" xlink:href="#BitstreamVeraSans-Roman-2e"/>
       <use x="95.41015625" xlink:href="#BitstreamVeraSans-Roman-35"/>
      </g>
     </g>
    </g>
    <g id="xtick_5">
     <g id="line2d_10">
      <g>
       <use style="stroke:#000000;stroke-width:0.5;" x="518.4" xlink:href="#m93b0483c22" y="388.8"/>
      </g>
     </g>
     <g id="line2d_11">
      <g>
       <use style="stroke:#000000;stroke-width:0.5;" x="518.4" xlink:href="#m741efc42ff" y="43.2"/>
      </g>
     </g>
     <g id="text_5">
      <!-- 2.0 -->
      <defs>
       <path d="
M19.1875 8.29688
L53.6094 8.29688
L53.6094 0
L7.32812 0
L7.32812 8.29688
Q12.9375 14.1094 22.625 23.8906
Q32.3281 33.6875 34.8125 36.5312
Q39.5469 41.8438 41.4219 45.5312
Q43.3125 49.2188 43.3125 52.7812
Q43.3125 58.5938 39.2344 62.25
Q35.1562 65.9219 28.6094 65.9219
Q23.9688 65.9219 18.8125 64.3125
Q13.6719 62.7031 7.8125 59.4219
L7.8125 69.3906
Q13.7656 71.7812 18.9375 73
Q24.125 74.2188 28.4219 74.2188
Q39.75 74.2188 46.4844 68.5469
Q53.2188 62.8906 53.2188 53.4219
Q53.2188 48.9219 51.5312 44.8906
Q49.8594 40.875 45.4062 35.4062
Q44.1875 33.9844 37.6406 27.2188
Q31.1094 20.4531 19.1875 8.29688" id="BitstreamVeraSans-Roman-32"/>
      </defs>
      <g transform="translate(509.69625 401.918125)scale(0.12 -0.12)">
       <use xlink:href="#BitstreamVeraSans-Roman-32"/>
       <use x="63.623046875" xlink:href="#BitstreamVeraSans-Roman-2e"/>
       <use x="95.41015625" xlink:href="#BitstreamVeraSans-Roman-30"/>
      </g>
     </g>
    </g>
   </g>
   <g id="matplotlib.axis_2">
    <g id="ytick_1">
     <g id="line2d_12">
      <defs>
       <path d="
M0 0
L4 0" id="m728421d6d4" style="stroke:#000000;stroke-width:0.5;"/>
      </defs>
      <g>
       <use style="stroke:#000000;stroke-width:0.5;" x="72.0" xlink:href="#m728421d6d4" y="388.8"/>
      </g>
     </g>
     <g id="line2d_13">
      <defs>
       <path d="
M0 0
L-4 0" id="mcb0005524f" style="stroke:#000000;stroke-width:0.5;"/>
      </defs>
      <g>
       <use style="stroke:#000000;stroke-width:0.5;" x="518.4" xlink:href="#mcb0005524f" y="388.8"/>
      </g>
     </g>
     <g id="text_6">
      <!-- −3 -->
      <defs>
       <path d="
M10.5938 35.5
L73.1875 35.5
L73.1875 27.2031
L10.5938 27.2031
z
" id="BitstreamVeraSans-Roman-2212"/>
       <path d="
M40.5781 39.3125
Q47.6562 37.7969 51.625 33
Q55.6094 28.2188 55.6094 21.1875
Q55.6094 10.4062 48.1875 4.48438
Q40.7656 -1.42188 27.0938 -1.42188
Q22.5156 -1.42188 17.6562 -0.515625
Q12.7969 0.390625 7.625 2.20312
L7.625 11.7188
Q11.7188 9.32812 16.5938 8.10938
Q21.4844 6.89062 26.8125 6.89062
Q36.0781 6.89062 40.9375 10.5469
Q45.7969 14.2031 45.7969 21.1875
Q45.7969 27.6406 41.2812 31.2656
Q36.7656 34.9062 28.7188 34.9062
L20.2188 34.9062
L20.2188 43.0156
L29.1094 43.0156
Q36.375 43.0156 40.2344 45.9219
Q44.0938 48.8281 44.0938 54.2969
Q44.0938 59.9062 40.1094 62.9062
Q36.1406 65.9219 28.7188 65.9219
Q24.6562 65.9219 20.0156 65.0312
Q15.375 64.1562 9.8125 62.3125
L9.8125 71.0938
Q15.4375 72.6562 20.3438 73.4375
Q25.25 74.2188 29.5938 74.2188
Q40.8281 74.2188 47.3594 69.1094
Q53.9062 64.0156 53.9062 55.3281
Q53.9062 49.2656 50.4375 45.0938
Q46.9688 40.9219 40.5781 39.3125" id="BitstreamVeraSans-Roman-33"/>
      </defs>
      <g transform="translate(52.5425 392.11125)scale(0.12 -0.12)">
       <use xlink:href="#BitstreamVeraSans-Roman-2212"/>
       <use x="83.7890625" xlink:href="#BitstreamVeraSans-Roman-33"/>
      </g>
     </g>
    </g>
    <g id="ytick_2">
     <g id="line2d_14">
      <g>
       <use style="stroke:#000000;stroke-width:0.5;" x="72.0" xlink:href="#m728421d6d4" y="331.2"/>
      </g>
     </g>
     <g id="line2d_15">
      <g>
       <use style="stroke:#000000;stroke-width:0.5;" x="518.4" xlink:href="#mcb0005524f" y="331.2"/>
      </g>
     </g>
     <g id="text_7">
      <!-- −2 -->
      <g transform="translate(52.7825 334.51125)scale(0.12 -0.12)">
       <use xlink:href="#BitstreamVeraSans-Roman-2212"/>
       <use x="83.7890625" xlink:href="#BitstreamVeraSans-Roman-32"/>
      </g>
     </g>
    </g>
    <g id="ytick_3">
     <g id="line2d_16">
      <g>
       <use style="stroke:#000000;stroke-width:0.5;" x="72.0" xlink:href="#m728421d6d4" y="273.6"/>
      </g>
     </g>
     <g id="line2d_17">
      <g>
       <use style="stroke:#000000;stroke-width:0.5;" x="518.4" xlink:href="#mcb0005524f" y="273.6"/>
      </g>
     </g>
     <g id="text_8">
      <!-- −1 -->
      <g transform="translate(52.68875 276.91125)scale(0.12 -0.12)">
       <use xlink:href="#BitstreamVeraSans-Roman-2212"/>
       <use x="83.7890625" xlink:href="#BitstreamVeraSans-Roman-31"/>
      </g>
     </g>
    </g>
    <g id="ytick_4">
     <g id="line2d_18">
      <g>
       <use style="stroke:#000000;stroke-width:0.5;" x="72.0" xlink:href="#m728421d6d4" y="216.0"/>
      </g>
     </g>
     <g id="line2d_19">
      <g>
       <use style="stroke:#000000;stroke-width:0.5;" x="518.4" xlink:href="#mcb0005524f" y="216.0"/>
      </g>
     </g>
     <g id="text_9">
      <!-- 0 -->
      <g transform="translate(61.953125 219.31125)scale(0.12 -0.12)">
       <use xlink:href="#BitstreamVeraSans-Roman-30"/>
      </g>
     </g>
    </g>
    <g id="ytick_5">
     <g id="line2d_20">
      <g>
       <use style="stroke:#000000;stroke-width:0.5;" x="72.0" xlink:href="#m728421d6d4" y="158.4"/>
      </g>
     </g>
     <g id="line2d_21">
      <g>
       <use style="stroke:#000000;stroke-width:0.5;" x="518.4" xlink:href="#mcb0005524f" y="158.4"/>
      </g>
     </g>
     <g id="text_10">
      <!-- 1 -->
      <g transform="translate(62.79125 161.71125)scale(0.12 -0.12)">
       <use xlink:href="#BitstreamVeraSans-Roman-31"/>
      </g>
     </g>
    </g>
    <g id="ytick_6">
     <g id="line2d_22">
      <g>
       <use style="stroke:#000000;stroke-width:0.5;" x="72.0" xlink:href="#m728421d6d4" y="100.8"/>
      </g>
     </g>
     <g id="line2d_23">
      <g>
       <use style="stroke:#000000;stroke-width:0.5;" x="518.4" xlink:href="#mcb0005524f" y="100.8"/>
      </g>
     </g>
     <g id="text_11">
      <!-- 2 -->
      <g transform="translate(62.44625 104.11125)scale(0.12 -0.12)">
       <use xlink:href="#BitstreamVeraSans-Roman-32"/>
      </g>
     </g>
    </g>
    <g id="ytick_7">
     <g id="line2d_24">
      <g>
       <use style="stroke:#000000;stroke-width:0.5;" x="72.0" xlink:href="#m728421d6d4" y="43.2"/>
      </g>
     </g>
     <g id="line2d_25">
      <g>
       <use style="stroke:#000000;stroke-width:0.5;" x="518.4" xlink:href="#mcb0005524f" y="43.2"/>
      </g>
     </g>
     <g id="text_12">
      <!-- 3 -->
      <g transform="translate(62.241875 46.51125)scale(0.12 -0.12)">
       <use xlink:href="#BitstreamVeraSans-Roman-33"/>
      </g>
     </g>
    </g>
    <g id="text_13">
     <!-- 1e−10 -->
     <defs>
      <path d="
M56.2031 29.5938
L56.2031 25.2031
L14.8906 25.2031
Q15.4844 15.9219 20.4844 11.0625
Q25.4844 6.20312 34.4219 6.20312
Q39.5938 6.20312 44.4531 7.46875
Q49.3125 8.73438 54.1094 11.2812
L54.1094 2.78125
Q49.2656 0.734375 44.1875 -0.34375
Q39.1094 -1.42188 33.8906 -1.42188
Q20.7969 -1.42188 13.1562 6.1875
Q5.51562 13.8125 5.51562 26.8125
Q5.51562 40.2344 12.7656 48.1094
Q20.0156 56 32.3281 56
Q43.3594 56 49.7812 48.8906
Q56.2031 41.7969 56.2031 29.5938
M47.2188 32.2344
Q47.125 39.5938 43.0938 43.9844
Q39.0625 48.3906 32.4219 48.3906
Q24.9062 48.3906 20.3906 44.1406
Q15.875 39.8906 15.1875 32.1719
z
" id="BitstreamVeraSans-Roman-65"/>
     </defs>
     <g transform="translate(72.0 40.2)scale(0.12 -0.12)">
      <use xlink:href="#BitstreamVeraSans-Roman-31"/>
      <use x="63.623046875" xlink:href="#BitstreamVeraSans-Roman-65"/>
      <use x="125.146484375" xlink:href="#BitstreamVeraSans-Roman-2212"/>
      <use x="208.935546875" xlink:href="#BitstreamVeraSans-Roman-31"/>
      <use x="272.55859375" xlink:href="#BitstreamVeraSans-Roman-30"/>
     </g>
    </g>
   </g>
  </g>
 </g>
 <defs>
  <clipPath id="p7ff5b81e1d">
   <rect height="345.6" width="446.4" x="72.0" y="43.2"/>
  </clipPath>
 </defs>
</svg>
